<mxfile host="app.diagrams.net" modified="2021-02-12T13:55:36.584Z" agent="5.0 (Macintosh; Intel Mac OS X 10_15_7) AppleWebKit/605.1.15 (KHTML, like Gecko) Version/14.0.3 Safari/605.1.15" etag="9zJvXZx34vkeU5OKt231" version="14.2.9" type="github">
  <diagram id="-w9G4Y97GcsajXjlwfUQ" name="Page-1">
    <mxGraphModel dx="1157" dy="769" grid="1" gridSize="10" guides="1" tooltips="1" connect="1" arrows="1" fold="1" page="1" pageScale="1" pageWidth="827" pageHeight="1169" background="none" math="0" shadow="0">
      <root>
        <mxCell id="0" />
        <mxCell id="1" parent="0" />
        <mxCell id="9CzY_LCpeozfdE7S5n3H-33" value="" style="rounded=0;whiteSpace=wrap;html=1;dashed=1;labelBackgroundColor=none;strokeWidth=3;fontFamily=Courier New;fontSize=18;align=left;fillColor=#dae8fc;opacity=40;glass=0;sketch=0;shadow=1;perimeterSpacing=1;" parent="1" vertex="1">
          <mxGeometry x="10" y="10" width="1140" height="754" as="geometry" />
        </mxCell>
        <mxCell id="0uaCBq9OTAoCECaHlLFM-2" value="" style="rounded=0;whiteSpace=wrap;html=1;opacity=50;strokeWidth=3;perimeterSpacing=0;fontFamily=Courier New;" parent="1" vertex="1">
          <mxGeometry x="50" y="64" width="1090" height="550" as="geometry" />
        </mxCell>
        <mxCell id="0uaCBq9OTAoCECaHlLFM-1" value="VCN: agwls-vcn&#xa;CIDR: 10.0.0.0/16" style="shape=image;verticalLabelPosition=middle;verticalAlign=middle;imageAspect=0;aspect=fixed;image=data:image/svg+xml,PHN2ZyB2ZXJzaW9uPSIxLjEiIGlkPSJEUkciIHhtbG5zPSJodHRwOi8vd3d3LnczLm9yZy8yMDAwL3N2ZyIgeG1sbnM6eGxpbms9Imh0dHA6Ly93d3cudzMub3JnLzE5OTkveGxpbmsiIHg9IjBweCIgeT0iMHB4IiB2aWV3Qm94PSIwIDAgMTYxLjkgMTYyIiBlbmFibGUtYmFja2dyb3VuZD0ibmV3IDAgMCAxNjEuOSAxNjIiIHhtbDpzcGFjZT0icHJlc2VydmUiPiYjeGE7PHBhdGggZmlsbD0iIzMxMkQyQSIgZD0iTTE1My41LDY4LjJjMC0xMC41LTguNS0xOS0xOS0xOWMtMy45LDAtNy41LDEuMi0xMC41LDMuMkw5OC43LDMzLjljMC4zLTEuNCwwLjUtMi44LDAuNS00LjMgIGMwLTEwLjUtOC41LTE5LTE5LTE5cy0xOSw4LjUtMTksMTljMCwxLjcsMC4yLDMuMywwLjcsNC45TDM3LjcsNTIuMWMtMi45LTEuOC02LjQtMi45LTEwLTIuOWMtMTAuNSwwLTE5LDguNS0xOSwxOSAgYzAsMTAsNy43LDE4LjEsMTcuNSwxOC45bDkuMiwyOC4yYy00LjgsMy41LTgsOS4xLTgsMTUuNGMwLDEwLjUsOC41LDE5LDE5LDE5YzcuOSwwLDE0LjgtNC45LDE3LjYtMTEuOWgzNC4zICBjMi44LDYuOSw5LjYsMTEuOSwxNy42LDExLjljMTAuNSwwLDE5LTguNSwxOS0xOWMwLTYuNy0zLjUtMTIuNS04LjctMTUuOWw5LTI3LjdDMTQ1LjMsODYuOCwxNTMuNSw3OC40LDE1My41LDY4LjJ6IE0xMzQuNSw1OS4yICBjNSwwLDksNCw5LDlzLTQsOS05LDlzLTktNC05LTlTMTI5LjYsNTkuMiwxMzQuNSw1OS4yeiBNMTE4LjQsNTguMmMtMS44LDIuOS0yLjksNi4zLTIuOSwxMGMwLDAuNiwwLDEuMiwwLjEsMS44TDk2LjcsNzYgIGMtMi42LTQuNS02LjktNy44LTEyLTkuMVY0OC4xYzQuMi0xLDcuOS0zLjUsMTAuNS02LjhMMTE4LjQsNTguMnogTTYwLjgsMTE4LjRsMTEuOS0xNS42YzIuMywxLDQuOCwxLjUsNy41LDEuNSAgYzMuMiwwLDYuMi0wLjgsOC44LTIuMmwxMi40LDE2LjJjLTIuNywzLjEtNC4zLDcuMS00LjUsMTEuNUg2NS4zQzY1LjEsMTI1LjUsNjMuNCwxMjEuNSw2MC44LDExOC40eiBNODAuMiw3Ni40YzUsMCw5LDQsOSw5ICBzLTQsOS05LDljLTUsMC05LTQtOS05Uzc1LjIsNzYuNCw4MC4yLDc2LjR6IE04MC4yLDIwLjZjNSwwLDksNCw5LDlzLTQsOS05LDljLTUsMC05LTQtOS05Uzc1LjIsMjAuNiw4MC4yLDIwLjZ6IE03Ni43LDQ4LjN2MTguNCAgYy01LjMsMS05LjksNC4yLTEyLjYsOC43bC0xNy40LTYuMWMwLTAuNCwwLjEtMC44LDAuMS0xLjJjMC0zLjktMS4yLTcuNC0zLjEtMTAuNGwyMi0xNkM2OC4zLDQ1LjEsNzIuMiw0Ny41LDc2LjcsNDguM3ogTTE4LjcsNjguMiAgYzAtNSw0LTksOS05czksNCw5LDlzLTQsOS05LDlTMTguNyw3My4xLDE4LjcsNjguMnogTTM0LjIsODZjNC40LTEuNiw4LjEtNC44LDEwLjMtOC45TDYxLjMsODNjLTAuMSwwLjgtMC4yLDEuNi0wLjIsMi40ICBjMCw0LjksMS45LDkuNCw1LDEyLjhsLTExLjgsMTUuNGMtMi41LTEuMi01LjItMS44LTguMS0xLjhjLTEuMywwLTIuNSwwLjEtMy43LDAuNEwzNC4yLDg2eiBNNDYuMywxMzkuOGMtNSwwLTktNC05LTlzNC05LDktOSAgczksNCw5LDlTNTEuMywxMzkuOCw0Ni4zLDEzOS44eiBNMTE1LjgsMTM5LjhjLTUsMC05LTQtOS05czQtOSw5LTlzOSw0LDksOVMxMjAuOCwxMzkuOCwxMTUuOCwxMzkuOHogTTExNS44LDExMS43ICBjLTIuOSwwLTUuNiwwLjctOC4xLDEuOEw5NS4xLDk3LjFjMi41LTMuMiw0LTcuMyw0LTExLjdjMC0wLjYsMC0xLjItMC4xLTEuN2wxOC45LTYuMWMyLjEsMy42LDUuMyw2LjUsOS4yLDguMmwtOC41LDI2LjMgIEMxMTcuOCwxMTEuOCwxMTYuOCwxMTEuNywxMTUuOCwxMTEuN3oiLz4mI3hhOzwvc3ZnPg==;fontFamily=Courier New;labelPosition=right;align=left;fontSize=16;" parent="1" vertex="1">
          <mxGeometry x="60" y="64" width="40" height="40" as="geometry" />
        </mxCell>
        <mxCell id="0uaCBq9OTAoCECaHlLFM-4" value="Public Subnet - Bastion &amp;nbsp; &amp;nbsp;&amp;nbsp;CIDR 10.0.1.0/24" style="outlineConnect=0;gradientColor=none;html=1;whiteSpace=wrap;fontSize=12;fontStyle=0;shape=mxgraph.aws4.group;grIcon=mxgraph.aws4.group_subnet;strokeColor=#879196;fillColor=none;verticalAlign=top;align=left;spacingLeft=30;dashed=0;fontFamily=Courier New;" parent="1" vertex="1">
          <mxGeometry x="90" y="114" width="420" height="160" as="geometry" />
        </mxCell>
        <mxCell id="0uaCBq9OTAoCECaHlLFM-6" value="Public Subnet - LB &amp;nbsp; &amp;nbsp; &amp;nbsp; &amp;nbsp; CIDR 10.0.3.0/24&amp;nbsp;" style="outlineConnect=0;gradientColor=none;html=1;whiteSpace=wrap;fontSize=12;fontStyle=0;shape=mxgraph.aws4.group;grIcon=mxgraph.aws4.group_subnet;strokeColor=#879196;fillColor=none;verticalAlign=top;align=left;spacingLeft=30;dashed=0;fontFamily=Courier New;" parent="1" vertex="1">
          <mxGeometry x="530" y="114" width="500" height="160" as="geometry" />
        </mxCell>
        <mxCell id="0uaCBq9OTAoCECaHlLFM-13" value="Internet GW" style="shape=image;verticalLabelPosition=bottom;verticalAlign=top;imageAspect=0;aspect=fixed;image=data:image/svg+xml,PHN2ZyB2ZXJzaW9uPSIxLjEiIGlkPSJJbnRlcm5ldF9HYXRld2F5IiB4bWxucz0iaHR0cDovL3d3dy53My5vcmcvMjAwMC9zdmciIHhtbG5zOnhsaW5rPSJodHRwOi8vd3d3LnczLm9yZy8xOTk5L3hsaW5rIiB4PSIwcHgiIHk9IjBweCIgdmlld0JveD0iMCAwIDE2MS45IDE2MiIgZW5hYmxlLWJhY2tncm91bmQ9Im5ldyAwIDAgMTYxLjkgMTYyIiB4bWw6c3BhY2U9InByZXNlcnZlIj4mI3hhOzxnPiYjeGE7CTxyZWN0IHg9Ijc3LjQiIHk9IjcxLjkiIGZpbGw9IiMzMTJEMkEiIHdpZHRoPSI2LjMiIGhlaWdodD0iMi44Ii8+JiN4YTsJPHJlY3QgeD0iNzcuNCIgeT0iNjYuMyIgZmlsbD0iIzMxMkQyQSIgd2lkdGg9IjYuMyIgaGVpZ2h0PSIyLjgiLz4mI3hhOwk8cGF0aCBmaWxsPSIjMzEyRDJBIiBkPSJNMTA0LjcsMjkuNGMtMi40LTQuNy03LjktMTAuMi0xNy4zLTguOGMtMy41LTMuNS0xMC4yLTcuNC0xOC44LTQuOWMtMS40LDAuMy03LjgsMi40LTExLjEsMTAuNSAgIEM1MiwyNy41LDQ0LjEsMzIsNDIuMiw0Mi44bDAsMC4yYzAsMC4zLTEsOC4xLDMuOSwxNC4xYzMuMSwzLjgsNy43LDUuOSwxMy42LDYuNGwwLjEsMGw0Mi41LDBjMC4xLDAsMC4yLDAsMC4yLDAgICBjNSwwLDE0LjgtMy4zLDE2LjktMTYuMmwwLTAuNEMxMTkuOSw0MS42LDExNy4xLDMxLjYsMTA0LjcsMjkuNHogTTEwMi40LDU1LjlIODMuNXYtOS40aDkuNEw4MC40LDMwLjRMNjguMyw0Ni42aDguOXY5LjRINjAuMSAgIGMtMy43LTAuMy02LjQtMS41LTguMS0zLjZjLTIuNy0zLjItMi40LTcuOC0yLjMtOC40YzEuOC05LjYsMTAtMTAuNiwxMC45LTEwLjdsMi42LTAuMmwwLjctMi41YzEuOC02LjQsNi4yLTcuNSw2LjMtNy41bDAuMy0wLjEgICBjNy41LTIuMiwxMS44LDMuMywxMi4yLDMuOWwxLjUsMi4ybDIuNS0wLjdjOC41LTIuMiwxMS4xLDQuMywxMS42LDUuNmwwLjgsMi40bDIuNSwwLjJjOS44LDAuOCwxMC4zLDcuOSwxMC4zLDkuNiAgIEMxMTAuMyw1NS43LDEwMy4zLDU1LjksMTAyLjQsNTUuOXoiLz4mI3hhOwk8cG9seWdvbiBmaWxsPSIjMzEyRDJBIiBwb2ludHM9Ijc0LjMsMTAwLjYgNzcuNSwxMDAuNiA3Ny41LDEyMy40IDc0LjIsMTIzLjQgODAuNiwxMzUgODcsMTIzLjQgODMuOCwxMjMuNCA4My44LDEwMC42IDg3LDEwMC42ICAgIDgwLjYsODkuMSAgIi8+JiN4YTsJPHBhdGggZmlsbD0iIzMxMkQyQSIgZD0iTTgwLjUsNzcuMWMtMTksMC0zNC41LDE1LjctMzQuNSwzNXMxNS41LDM1LDM0LjUsMzVjMTksMCwzNC41LTE1LjcsMzQuNS0zNVM5OS41LDc3LjEsODAuNSw3Ny4xeiAgICBNODYuNCwxMTIuMWwxMS42LDYuNHYtMy4yaDkuMmMtMS41LDEzLjctMTMsMjQuNC0yNi44LDI0LjRjLTEzLjksMC0yNS4zLTEwLjctMjYuOC0yNC40aDkuN3YzLjJMNzUsMTEybC0xMS42LTYuNHYzLjJoLTkuNyAgIGMxLjYtMTMuNiwxMy0yNC4zLDI2LjgtMjQuM2MxMy44LDAsMjUuMiwxMC42LDI2LjgsMjQuM0g5OHYtMy4yTDg2LjQsMTEyLjF6Ii8+JiN4YTs8L2c+JiN4YTs8L3N2Zz4=;fontFamily=Courier New;" parent="1" vertex="1">
          <mxGeometry x="1056" y="157" width="52" height="52" as="geometry" />
        </mxCell>
        <mxCell id="0uaCBq9OTAoCECaHlLFM-14" value="LB - WLS External&#xa;(129.159.78.99)" style="shape=image;verticalLabelPosition=bottom;verticalAlign=top;imageAspect=0;aspect=fixed;image=data:image/svg+xml,PHN2ZyB2ZXJzaW9uPSIxLjEiIGlkPSJMb2FkX0JhbGFuY2VyIiB4bWxucz0iaHR0cDovL3d3dy53My5vcmcvMjAwMC9zdmciIHhtbG5zOnhsaW5rPSJodHRwOi8vd3d3LnczLm9yZy8xOTk5L3hsaW5rIiB4PSIwcHgiIHk9IjBweCIgdmlld0JveD0iMCAwIDE2MS45IDE2MiIgZW5hYmxlLWJhY2tncm91bmQ9Im5ldyAwIDAgMTYxLjkgMTYyIiB4bWw6c3BhY2U9InByZXNlcnZlIj4mI3hhOzxwYXRoIGZpbGw9IiMzMTJEMkEiIGQ9Ik0xMjIuNSwxMTIuOEw5Mi42LDg0LjdoMzYuMnY2LjZsMTgtOS45bC0xOC05Ljl2NS4ySDkyLjNsMzAuMi0yOC40bDQuMSw0LjRsNi4zLTE5LjZMMTEzLDM4LjJsNCw0LjIgIEw4OCw2OS43VjMwLjZIMjguOHY0Ni4xSDExLjF2OGgxNy43djQ2LjlIODhWOTEuM2wyOSwyNy4zbC00LDQuMmwxOS45LDUuMWwtNi4zLTE5LjZMMTIyLjUsMTEyLjh6IE03OSwxMjIuNUgzNy44Vjg0LjdoMjIuN3Y2LjYgIGwxOC05LjlsLTE4LTkuOXY1LjJIMzcuOFYzOS42SDc5VjEyMi41eiIvPiYjeGE7PC9zdmc+;rotation=0;fontFamily=Courier New;" parent="1" vertex="1">
          <mxGeometry x="630" y="152" width="62" height="62" as="geometry" />
        </mxCell>
        <mxCell id="0uaCBq9OTAoCECaHlLFM-16" value="Service GW" style="shape=image;verticalLabelPosition=bottom;verticalAlign=top;imageAspect=0;aspect=fixed;image=data:image/svg+xml,PHN2ZyB2ZXJzaW9uPSIxLjEiIGlkPSJEUkciIHhtbG5zPSJodHRwOi8vd3d3LnczLm9yZy8yMDAwL3N2ZyIgeG1sbnM6eGxpbms9Imh0dHA6Ly93d3cudzMub3JnLzE5OTkveGxpbmsiIHg9IjBweCIgeT0iMHB4IiB2aWV3Qm94PSIwIDAgMTYxLjkgMTYyIiBlbmFibGUtYmFja2dyb3VuZD0ibmV3IDAgMCAxNjEuOSAxNjIiIHhtbDpzcGFjZT0icHJlc2VydmUiPiYjeGE7PGc+JiN4YTsJPHBhdGggZmlsbD0iIzMxMkQyQSIgZD0iTTgxLDE5LjJjLTM0LjEsMC02MS44LDI3LjctNjEuOCw2MS44czI3LjcsNjEuOCw2MS44LDYxLjhzNjEuOC0yNy43LDYxLjgtNjEuOFMxMTUuMSwxOS4yLDgxLDE5LjJ6ICAgIE04MSwxMzMuOGMtMjcuNywwLTUwLjUtMjEuNS01Mi42LTQ4LjdoMjMuOXY4LjZsMjEtMTEuNmwtMjEtMTEuNXY3LjFoLTI0QzMwLjEsNTAuMSw1MywyOC4yLDgxLDI4LjJjMjguMSwwLDUxLjEsMjIsNTIuNyw0OS43ICAgaC0yMy44di03LjhsLTIxLDExLjZsMjEsMTEuNXYtNy44aDIzLjdDMTMxLjQsMTEyLjQsMTA4LjcsMTMzLjgsODEsMTMzLjh6Ii8+JiN4YTsJPHBvbHlnb24gZmlsbD0iIzMxMkQyQSIgcG9pbnRzPSI4NC4yLDYwLjcgOTIuMSw2MC43IDgwLjUsMzkuOCA2OSw2MC43IDc2LjgsNjAuNyA3Ni44LDEwMiA2OC45LDEwMiA4MC41LDEyMi45IDkyLDEwMiA4NC4yLDEwMiAgICAgIi8+JiN4YTs8L2c+JiN4YTs8L3N2Zz4=;fontFamily=Courier New;" parent="1" vertex="1">
          <mxGeometry x="1058" y="284" width="55" height="55" as="geometry" />
        </mxCell>
        <mxCell id="0uaCBq9OTAoCECaHlLFM-20" value="VM: Bastion (10.0.1.2)&#xa;Public IP: 129.213.46.215" style="shape=image;verticalLabelPosition=middle;verticalAlign=middle;imageAspect=0;aspect=fixed;image=data:image/svg+xml,PHN2ZyB2ZXJzaW9uPSIxLjEiIGlkPSJWTSIgeG1sbnM9Imh0dHA6Ly93d3cudzMub3JnLzIwMDAvc3ZnIiB4bWxuczp4bGluaz0iaHR0cDovL3d3dy53My5vcmcvMTk5OS94bGluayIgeD0iMHB4IiB5PSIwcHgiIHZpZXdCb3g9IjAgMCAxNjEuOSAxNjIiIGVuYWJsZS1iYWNrZ3JvdW5kPSJuZXcgMCAwIDE2MS45IDE2MiIgeG1sOnNwYWNlPSJwcmVzZXJ2ZSI+JiN4YTs8cGF0aCBmaWxsPSIjMzEyRDJBIiBkPSJNNjAuNCw5MC45SDMzLjdWNjQuMWgyNi43VjkwLjl6IE00MC43LDgzLjloMTIuN1Y3MS4xSDQwLjdWODMuOXogTTEyNy42LDkwLjloLTI2LjdWNjQuMWgyNi43VjkwLjl6ICAgTTEwNy44LDgzLjloMTIuN1Y3MS4xaC0xMi43VjgzLjl6IE05My45LDkwLjlINjcuMlY2NC4xaDI2LjdWOTAuOXogTTc0LjIsODMuOWgxMi43VjcxLjFINzQuMlY4My45eiBNNjAuNCw1Ny44SDMzLjdWMzEuMWgyNi43ICBWNTcuOHogTTQwLjcsNTAuOGgxMi43VjM4LjFINDAuN1Y1MC44eiBNMTI3LjYsNTcuOGgtMjYuN1YzMS4xaDI2LjdWNTcuOHogTTEwNy44LDUwLjhoMTIuN1YzOC4xaC0xMi43VjUwLjh6IE05My45LDU3LjhINjcuMlYzMS4xICBoMjYuN1Y1Ny44eiBNNzQuMiw1MC44aDEyLjdWMzguMUg3NC4yVjUwLjh6IE0xNTIuOCwxNTIuOUg5VjkuMmgxNDMuOFYxNTIuOXogTTE4LDE0My45aDEyNS44VjE4LjJIMThWMTQzLjl6IE0xMjkuMSwxMzIuM0gzMi45ICBWOTcuNGg5Ni4zVjEzMi4zeiBNNDEuOSwxMjMuM2g3OC4zdi0xNi45SDQxLjlWMTIzLjN6IE0xMDUuOCwxMTAuMmMtMi42LDAtNC43LDIuMS00LjcsNC43YzAsMi42LDIuMSw0LjcsNC43LDQuNyAgYzIuNiwwLDQuNy0yLjEsNC43LTQuN0MxMTAuNSwxMTIuMywxMDguNCwxMTAuMiwxMDUuOCwxMTAuMnoiLz4mI3hhOzwvc3ZnPg==;fontFamily=Courier New;labelPosition=right;align=left;" parent="1" vertex="1">
          <mxGeometry x="110" y="163" width="40" height="40" as="geometry" />
        </mxCell>
        <mxCell id="9CzY_LCpeozfdE7S5n3H-2" value="NAT GW" style="shape=image;verticalLabelPosition=bottom;verticalAlign=top;imageAspect=0;aspect=fixed;image=data:image/svg+xml,PHN2ZyB2ZXJzaW9uPSIxLjEiIGlkPSJOQVRfR2F0ZXdheSIgeG1sbnM9Imh0dHA6Ly93d3cudzMub3JnLzIwMDAvc3ZnIiB4bWxuczp4bGluaz0iaHR0cDovL3d3dy53My5vcmcvMTk5OS94bGluayIgeD0iMHB4IiB5PSIwcHgiIHZpZXdCb3g9IjAgMCAxNjEuOSAxNjIiIGVuYWJsZS1iYWNrZ3JvdW5kPSJuZXcgMCAwIDE2MS45IDE2MiIgeG1sOnNwYWNlPSJwcmVzZXJ2ZSI+JiN4YTs8cGF0aCBmaWxsPSIjMzEyRDJBIiBkPSJNMTQwLjMsOTAuMWgtMTcuMVY3NC43TDk5LjIsOTAuMUg3Mi42VjczLjdIOTNWNTguNmwxNS40LTI0LjFIOTNWMTUuOGgtOXYxOC43SDY4LjZMODQsNTguNHY2LjNINjMuNnYyNS40ICBINTJWNzQuN0wyMSw5NC41bDMxLDIwVjk5LjFoMzJ2MTVMNjguNiwxMzhIODR2OS4xaDlWMTM4aDE1LjRMOTMsMTEzLjlWOTkuMWg2LjNsMjMuOSwxNS40Vjk5LjFoMTcuMVY5MC4xeiBNOTUuNiw0MS41bC03LjEsMTEuMSAgbC03LjEtMTEuMUg5NS42eiBNNDUsMTAxLjdMMzQsOTQuNUw0NSw4Ny41VjEwMS43eiBNODEuNCwxMzFsNy4xLTExLjFsNy4xLDExLjFIODEuNHogTTExNi4yLDEwMS43bC0xMS4xLTcuMWwxMS4xLTcuMVYxMDEuN3oiLz4mI3hhOzwvc3ZnPg==;fontFamily=Courier New;" parent="1" vertex="1">
          <mxGeometry x="1056" y="374" width="54" height="54" as="geometry" />
        </mxCell>
        <mxCell id="9CzY_LCpeozfdE7S5n3H-4" value="LB - WLS Internal&#xa;(10.0.3.4)" style="shape=image;verticalLabelPosition=bottom;verticalAlign=top;imageAspect=0;aspect=fixed;image=data:image/svg+xml,PHN2ZyB2ZXJzaW9uPSIxLjEiIGlkPSJMb2FkX0JhbGFuY2VyIiB4bWxucz0iaHR0cDovL3d3dy53My5vcmcvMjAwMC9zdmciIHhtbG5zOnhsaW5rPSJodHRwOi8vd3d3LnczLm9yZy8xOTk5L3hsaW5rIiB4PSIwcHgiIHk9IjBweCIgdmlld0JveD0iMCAwIDE2MS45IDE2MiIgZW5hYmxlLWJhY2tncm91bmQ9Im5ldyAwIDAgMTYxLjkgMTYyIiB4bWw6c3BhY2U9InByZXNlcnZlIj4mI3hhOzxwYXRoIGZpbGw9IiMzMTJEMkEiIGQ9Ik0xMjIuNSwxMTIuOEw5Mi42LDg0LjdoMzYuMnY2LjZsMTgtOS45bC0xOC05Ljl2NS4ySDkyLjNsMzAuMi0yOC40bDQuMSw0LjRsNi4zLTE5LjZMMTEzLDM4LjJsNCw0LjIgIEw4OCw2OS43VjMwLjZIMjguOHY0Ni4xSDExLjF2OGgxNy43djQ2LjlIODhWOTEuM2wyOSwyNy4zbC00LDQuMmwxOS45LDUuMWwtNi4zLTE5LjZMMTIyLjUsMTEyLjh6IE03OSwxMjIuNUgzNy44Vjg0LjdoMjIuN3Y2LjYgIGwxOC05LjlsLTE4LTkuOXY1LjJIMzcuOFYzOS42SDc5VjEyMi41eiIvPiYjeGE7PC9zdmc+;rotation=0;fontFamily=Courier New;" parent="1" vertex="1">
          <mxGeometry x="790" y="154" width="62" height="62" as="geometry" />
        </mxCell>
        <mxCell id="9CzY_LCpeozfdE7S5n3H-11" value="OCI Registry&#xa;(outside VCN)" style="shape=image;verticalLabelPosition=bottom;verticalAlign=top;imageAspect=0;aspect=fixed;image=data:image/svg+xml,PHN2ZyB2ZXJzaW9uPSIxLjEiIGlkPSJPS0VfQUxUMiIgeG1sbnM9Imh0dHA6Ly93d3cudzMub3JnLzIwMDAvc3ZnIiB4bWxuczp4bGluaz0iaHR0cDovL3d3dy53My5vcmcvMTk5OS94bGluayIgeD0iMHB4IiB5PSIwcHgiIHZpZXdCb3g9IjAgMCAxNjEuOSAxNjIiIGVuYWJsZS1iYWNrZ3JvdW5kPSJuZXcgMCAwIDE2MS45IDE2MiIgeG1sOnNwYWNlPSJwcmVzZXJ2ZSI+JiN4YTs8cGF0aCBmaWxsPSIjMzEyRDJBIiBkPSJNNzEuNiwxMTMuOGgxOS4yaDloMjguNFY3Ni40aC0xNC4xVjQ4SDg1LjVoLTguOEg0OC4xdjI4LjRoLTE0djM3LjRoMjguMkg3MS42eiBNOTAuOCwxMDQuOEg3MS42Vjg1LjRoNS4xICBoOC44aDUuM1YxMDQuOHogTTExOS4yLDg1LjR2MTkuNEg5OS44Vjg1LjRoMTQuM0gxMTkuMnogTTg1LjcsNTdoMTkuNHYxOS40aC01LjNoLTloLTUuMVY1N3ogTTU3LjEsNTdoMTkuNHYxOS40aC01aC05LjJoLTUuM1Y1N3ogICBNNDMuMiwxMDQuOFY4NS40aDVoMTQuM3YxOS40SDQzLjJ6IE05LDkuMnYxNDMuNmgxNDMuOFY5LjJIOXogTTE0My44LDE0My45SDE4VjE4LjJoMTI1LjhWMTQzLjl6Ii8+JiN4YTs8L3N2Zz4=;fontFamily=Courier New;" parent="1" vertex="1">
          <mxGeometry x="1060" y="494.5" width="51" height="51" as="geometry" />
        </mxCell>
        <mxCell id="9CzY_LCpeozfdE7S5n3H-18" value="" style="group;fontFamily=Courier New;" parent="1" vertex="1" connectable="0">
          <mxGeometry x="680" y="79" width="350" height="495" as="geometry" />
        </mxCell>
        <mxCell id="9CzY_LCpeozfdE7S5n3H-30" value="" style="outlineConnect=0;dashed=0;verticalLabelPosition=bottom;verticalAlign=top;align=center;html=1;shape=mxgraph.aws3.http_protocol;fillColor=#5294CF;gradientColor=none;rounded=1;labelBackgroundColor=#E6E6E6;strokeWidth=2;fontFamily=Courier New;fontSize=10;fontColor=#3333FF;" parent="9CzY_LCpeozfdE7S5n3H-18" vertex="1">
          <mxGeometry x="300" y="155" width="40" height="35" as="geometry" />
        </mxCell>
        <mxCell id="9CzY_LCpeozfdE7S5n3H-19" value="" style="group;fontFamily=Courier New;" parent="1" vertex="1" connectable="0">
          <mxGeometry x="90" y="466" width="420" height="108" as="geometry" />
        </mxCell>
        <mxCell id="0uaCBq9OTAoCECaHlLFM-8" value="&lt;font color=&quot;#000000&quot;&gt;Private Subnet - Admin &amp;nbsp;CIDR 10.0.2.0/24&lt;/font&gt;" style="outlineConnect=0;gradientColor=none;html=1;whiteSpace=wrap;fontSize=12;fontStyle=0;shape=mxgraph.aws4.group;grIcon=mxgraph.aws4.group_subnet;strokeColor=#879196;fillColor=none;verticalAlign=top;align=left;spacingLeft=30;fontColor=#879196;dashed=0;fontFamily=Courier New;" parent="9CzY_LCpeozfdE7S5n3H-19" vertex="1">
          <mxGeometry width="419" height="108" as="geometry" />
        </mxCell>
        <mxCell id="0uaCBq9OTAoCECaHlLFM-21" value="VM: admin (10.0.2.2)" style="shape=image;verticalLabelPosition=middle;verticalAlign=middle;imageAspect=0;aspect=fixed;image=data:image/svg+xml,PHN2ZyB2ZXJzaW9uPSIxLjEiIGlkPSJWTSIgeG1sbnM9Imh0dHA6Ly93d3cudzMub3JnLzIwMDAvc3ZnIiB4bWxuczp4bGluaz0iaHR0cDovL3d3dy53My5vcmcvMTk5OS94bGluayIgeD0iMHB4IiB5PSIwcHgiIHZpZXdCb3g9IjAgMCAxNjEuOSAxNjIiIGVuYWJsZS1iYWNrZ3JvdW5kPSJuZXcgMCAwIDE2MS45IDE2MiIgeG1sOnNwYWNlPSJwcmVzZXJ2ZSI+JiN4YTs8cGF0aCBmaWxsPSIjMzEyRDJBIiBkPSJNNjAuNCw5MC45SDMzLjdWNjQuMWgyNi43VjkwLjl6IE00MC43LDgzLjloMTIuN1Y3MS4xSDQwLjdWODMuOXogTTEyNy42LDkwLjloLTI2LjdWNjQuMWgyNi43VjkwLjl6ICAgTTEwNy44LDgzLjloMTIuN1Y3MS4xaC0xMi43VjgzLjl6IE05My45LDkwLjlINjcuMlY2NC4xaDI2LjdWOTAuOXogTTc0LjIsODMuOWgxMi43VjcxLjFINzQuMlY4My45eiBNNjAuNCw1Ny44SDMzLjdWMzEuMWgyNi43ICBWNTcuOHogTTQwLjcsNTAuOGgxMi43VjM4LjFINDAuN1Y1MC44eiBNMTI3LjYsNTcuOGgtMjYuN1YzMS4xaDI2LjdWNTcuOHogTTEwNy44LDUwLjhoMTIuN1YzOC4xaC0xMi43VjUwLjh6IE05My45LDU3LjhINjcuMlYzMS4xICBoMjYuN1Y1Ny44eiBNNzQuMiw1MC44aDEyLjdWMzguMUg3NC4yVjUwLjh6IE0xNTIuOCwxNTIuOUg5VjkuMmgxNDMuOFYxNTIuOXogTTE4LDE0My45aDEyNS44VjE4LjJIMThWMTQzLjl6IE0xMjkuMSwxMzIuM0gzMi45ICBWOTcuNGg5Ni4zVjEzMi4zeiBNNDEuOSwxMjMuM2g3OC4zdi0xNi45SDQxLjlWMTIzLjN6IE0xMDUuOCwxMTAuMmMtMi42LDAtNC43LDIuMS00LjcsNC43YzAsMi42LDIuMSw0LjcsNC43LDQuNyAgYzIuNiwwLDQuNy0yLjEsNC43LTQuN0MxMTAuNSwxMTIuMywxMDguNCwxMTAuMiwxMDUuOCwxMTAuMnoiLz4mI3hhOzwvc3ZnPg==;fontFamily=Courier New;align=left;labelPosition=right;" parent="9CzY_LCpeozfdE7S5n3H-19" vertex="1">
          <mxGeometry x="20" y="41.69" width="28.31" height="28.31" as="geometry" />
        </mxCell>
        <mxCell id="9CzY_LCpeozfdE7S5n3H-28" value="&lt;font color=&quot;#000000&quot; style=&quot;font-size: 10px;&quot;&gt;ssh -o ProxyCommand=&quot;ssh -W %h:%p opc@129.213.46.215&quot; opc@10.0.2.2&lt;/font&gt;" style="text;html=1;strokeColor=none;fillColor=none;align=center;verticalAlign=middle;whiteSpace=wrap;rounded=0;dashed=1;fontSize=10;fontColor=#3333FF;fontStyle=1;labelBackgroundColor=#E6E6E6;fontFamily=Courier New;" parent="9CzY_LCpeozfdE7S5n3H-19" vertex="1">
          <mxGeometry y="88" width="420" height="20" as="geometry" />
        </mxCell>
        <mxCell id="9CzY_LCpeozfdE7S5n3H-36" value="With Proxy" style="shape=image;html=1;verticalAlign=top;verticalLabelPosition=bottom;labelBackgroundColor=#ffffff;imageAspect=0;aspect=fixed;image=https://cdn2.iconfinder.com/data/icons/stilllife/48x48/filesystems/gnome-fs-ssh.png;rounded=1;dashed=1;strokeWidth=2;fontFamily=Courier New;fontSize=10;align=left;" parent="9CzY_LCpeozfdE7S5n3H-19" vertex="1">
          <mxGeometry x="350" y="8" width="48" height="48" as="geometry" />
        </mxCell>
        <mxCell id="0uaCBq9OTAoCECaHlLFM-9" value="Private Subnet - FSS &amp;nbsp; &amp;nbsp;CIDR 10.0.0.0/24" style="outlineConnect=0;gradientColor=none;html=1;whiteSpace=wrap;fontSize=12;fontStyle=0;shape=mxgraph.aws4.group;grIcon=mxgraph.aws4.group_subnet;strokeColor=#879196;fillColor=none;verticalAlign=top;align=left;spacingLeft=30;dashed=0;fontFamily=Courier New;" parent="1" vertex="1">
          <mxGeometry x="90" y="294" width="420" height="160" as="geometry" />
        </mxCell>
        <mxCell id="9CzY_LCpeozfdE7S5n3H-10" value="Mount Target: 10.0.5.3&#xa;File System: agwls-fss&#xa;Export: /agwls" style="shape=image;verticalLabelPosition=middle;verticalAlign=middle;imageAspect=0;aspect=fixed;image=data:image/svg+xml,PHN2ZyB2ZXJzaW9uPSIxLjEiIGlkPSJGaWxlX1N0b3JhZ2UiIHhtbG5zPSJodHRwOi8vd3d3LnczLm9yZy8yMDAwL3N2ZyIgeG1sbnM6eGxpbms9Imh0dHA6Ly93d3cudzMub3JnLzE5OTkveGxpbmsiIHg9IjBweCIgeT0iMHB4IiB2aWV3Qm94PSIwIDAgMTYxLjkgMTYyIiBlbmFibGUtYmFja2dyb3VuZD0ibmV3IDAgMCAxNjEuOSAxNjIiIHhtbDpzcGFjZT0icHJlc2VydmUiPiYjeGE7PHBhdGggZmlsbD0iIzMxMkQyQSIgZD0iTTE1My4xLDE1Mi41SDkuNFYyNi44aDE0My44VjE1Mi41eiBNMTguNCwxNDMuNWgxMjUuOFYzNS44SDE4LjRWMTQzLjV6IE0xNTIuNiw5LjFIOC45djloMTQzLjhWOS4xeiAgIE0xMTIsMTI0LjFIMzYuOFY3MC45aDAuMVY1OS4xaDMzLjlsNi45LDExLjdIMTEyVjEyNC4xeiBNNDQuMywxMTYuNmg2MC4yVjc4LjRINzMuNGwtNi45LTExLjdINDQuNHYxMS43aC0wLjFWMTE2LjZ6IE0xMjQuNyw1OUg3OSAgbDQsN2gzNC43djU4LjRoN1Y1OXoiLz4mI3hhOzwvc3ZnPg==;fontFamily=Courier New;align=left;labelPosition=right;" parent="1" vertex="1">
          <mxGeometry x="110" y="344" width="30" height="30" as="geometry" />
        </mxCell>
        <mxCell id="9CzY_LCpeozfdE7S5n3H-25" value="&lt;h1 style=&quot;font-size: 10px;&quot;&gt;&lt;font style=&quot;font-size: 10px;&quot;&gt;Filesystem &amp;nbsp; &amp;nbsp; &amp;nbsp; Size &amp;nbsp;Used Avail Use% Mounted on&lt;/font&gt;&lt;/h1&gt;&lt;h1 style=&quot;font-size: 10px;&quot;&gt;&lt;font style=&quot;font-size: 10px;&quot;&gt;10.0.5.3:/agwls &amp;nbsp;8.0E &amp;nbsp;497M &amp;nbsp;8.0E &amp;nbsp; 1% /u01/shared&lt;/font&gt;&lt;/h1&gt;" style="text;html=1;strokeColor=none;fillColor=none;spacing=5;spacingTop=-20;whiteSpace=wrap;overflow=hidden;rounded=0;dashed=1;fontSize=10;labelBackgroundColor=#E6E6E6;fontFamily=Courier New;" parent="1" vertex="1">
          <mxGeometry x="100" y="406" width="320" height="38" as="geometry" />
        </mxCell>
        <mxCell id="9CzY_LCpeozfdE7S5n3H-29" value="" style="shape=image;html=1;verticalAlign=top;verticalLabelPosition=bottom;labelBackgroundColor=#ffffff;imageAspect=0;aspect=fixed;image=https://cdn2.iconfinder.com/data/icons/stilllife/48x48/filesystems/gnome-fs-ssh.png;rounded=1;dashed=1;strokeWidth=2;fontFamily=Courier New;fontSize=10;fontColor=#3333FF;align=left;" parent="1" vertex="1">
          <mxGeometry x="442" y="226" width="48" height="48" as="geometry" />
        </mxCell>
        <mxCell id="9CzY_LCpeozfdE7S5n3H-31" value="ATP for JRF&#xa;Database Name: DB202101190925&#xa;Workload Type: Transaction Processing" style="shape=image;verticalLabelPosition=middle;verticalAlign=middle;imageAspect=0;aspect=fixed;image=data:image/svg+xml,PHN2ZyB2ZXJzaW9uPSIxLjEiIGlkPSJBdXRvbm9tb3VzX0FMVCIgeG1sbnM9Imh0dHA6Ly93d3cudzMub3JnLzIwMDAvc3ZnIiB4bWxuczp4bGluaz0iaHR0cDovL3d3dy53My5vcmcvMTk5OS94bGluayIgeD0iMHB4IiB5PSIwcHgiIHZpZXdCb3g9IjAgMCAxNjEuOSAxNjIiIGVuYWJsZS1iYWNrZ3JvdW5kPSJuZXcgMCAwIDE2MS45IDE2MiIgeG1sOnNwYWNlPSJwcmVzZXJ2ZSI+JiN4YTs8cGF0aCBmaWxsPSIjMzEyRDJBIiBkPSJNMTQ5LjgsNjUuNmMtMC42LDExLjgtOC4yLDIyLjctMTkuMSwyN2MtMC43LDAuMy0xLjMsMC41LTIsMC43di05LjdjNi44LTMuNCwxMS43LTEwLjgsMTIuMS0xOC41ICBjMC42LTEyLjYtMTAuNS0xOS40LTIxLTIwLjJsLTMtMC4zbC0wLjktMi45Yy0wLjYtMS43LTYuMS0xNi44LTI0LjQtMTIuMWwtMywwLjhsLTEuOC0yLjZjLTAuNC0wLjUtOS40LTEyLjktMjUuMy04LjJsLTAuNCwwLjEgIGMtMC4zLDAuMS05LjgsMi4zLTEzLjYsMTUuN2wtMC45LDNsLTMuMSwwLjJjLTAuNywwLjEtMTguOCwxLjctMjIuNCwyMS45Yy0wLjIsMS40LTEuNCwxNi45LDEyLDIyLjd2OS41Yy0wLjYtMC4yLTEuMS0wLjMtMS42LTAuNSAgQzEzLjUsODYsMTAuOCw2OCwxMS45LDU5LjRsMC0wLjJjMy40LTE5LjYsMTguMS0yNy4yLDI3LjYtMjlDNDUuMSwxNC45LDU2LjksMTEuNSw1OC45LDExYzE1LjYtNC41LDI3LjUsMy4xLDMzLjIsOS4zICBjMTkuNS0zLjYsMjguMyw5LjksMzEuMiwxNS45QzEzNy40LDM4LjUsMTUwLjYsNDguOSwxNDkuOCw2NS42eiBNNjIuNyw2My4xYzAtOS45LTguMS0xOC0xOC0xOHMtMTgsOC4xLTE4LDE4czguMSwxOCwxOCwxOCAgUzYyLjcsNzMuMSw2Mi43LDYzLjF6IE01Ny42LDYzLjFjMCw3LjEtNS44LDEyLjktMTIuOSwxMi45cy0xMi45LTUuOC0xMi45LTEyLjlzNS44LTEyLjksMTIuOS0xMi45UzU3LjYsNTYsNTcuNiw2My4xeiBNNDEuMSw3MC42ICBsMC44LTIuOWg1LjNsMC45LDIuOWg1LjJsLTYuMy0xN2gtNC42bC02LjMsMTdINDEuMXogTTQ0LjUsNTguNWwxLjYsNS42aC0zLjJMNDQuNSw1OC41eiBNNzcuMyw5OC44SDM4LjJ2NTBoMzkuMVY5OC44eiBNNDYsMTA2LjYgIGgyMy41VjE0MUg0NlYxMDYuNnogTTc3LDg0LjhIMzguMXY5SDc3Vjg0Ljh6IE0xMjMuMiw5OC44SDg0LjF2NTBoMzkuMVY5OC44eiBNOTEuOSwxMDYuNmgyMy41VjE0MUg5MS45VjEwNi42eiBNMTIyLjksODQuOEg4NHY5ICBoMzguOVY4NC44eiIvPiYjeGE7PC9zdmc+;rounded=1;dashed=1;labelBackgroundColor=none;strokeWidth=2;fontFamily=Courier New;fontSize=18;fontColor=#000000;align=left;labelPosition=right;" parent="1" vertex="1">
          <mxGeometry x="70" y="674" width="70" height="70" as="geometry" />
        </mxCell>
        <mxCell id="9CzY_LCpeozfdE7S5n3H-32" value="OKE Key Vault&#xa;Secret: WLSAdmin&#xa;Secret: AuthToken&#xa;Secret: DBPassword" style="shape=image;verticalLabelPosition=middle;verticalAlign=middle;imageAspect=0;aspect=fixed;image=data:image/svg+xml,PHN2ZyB2ZXJzaW9uPSIxLjEiIGlkPSJDbG91ZF9HdWFyZF9BTFRfY29weV8yIiB4bWxucz0iaHR0cDovL3d3dy53My5vcmcvMjAwMC9zdmciIHhtbG5zOnhsaW5rPSJodHRwOi8vd3d3LnczLm9yZy8xOTk5L3hsaW5rIiB4PSIwcHgiIHk9IjBweCIgdmlld0JveD0iMCAwIDE2MS45IDE2MiIgZW5hYmxlLWJhY2tncm91bmQ9Im5ldyAwIDAgMTYxLjkgMTYyIiB4bWw6c3BhY2U9InByZXNlcnZlIj4mI3hhOzxnPiYjeGE7CTxwb2x5Z29uIGZpbGw9IiMzMTJEMkEiIHBvaW50cz0iMTE5LjUsMzcuNSAxMDkuMyw0NyAxMDUuMyw0Mi45IDEwMS4xLDQ3LjIgMTA5LjIsNTUuMyAxMjMuNiw0MS45ICAiLz4mI3hhOwk8cmVjdCB4PSI3NC43IiB5PSI0NS44IiBmaWxsPSIjMzEyRDJBIiB3aWR0aD0iMTcuOCIgaGVpZ2h0PSI2Ii8+JiN4YTsJPHBvbHlnb24gZmlsbD0iIzMxMkQyQSIgcG9pbnRzPSIxMTkuOSwxMTQuOCAxMTEuMyw5OS4zIDEwMi44LDExNC44ICAiLz4mI3hhOwkmI3hhOwkJPGVsbGlwc2UgdHJhbnNmb3JtPSJtYXRyaXgoMC45NzMyIC0wLjIyOTggMC4yMjk4IDAuOTczMiAtMjIuNDc0NyAyMi4zMDkxKSIgZmlsbD0iIzMxMkQyQSIgY3g9Ijg0LjYiIGN5PSIxMDcuNyIgcng9IjcuNyIgcnk9IjcuNyIvPiYjeGE7CTxwYXRoIGZpbGw9IiMzMTJEMkEiIGQ9Ik0xNTMuMSw4Mi45VjMyLjJMOTguNyw4LjhMNDQuMiwzMi4ybDAuMSwzNC40aDlsLTAuMS0yOC41bDQ1LjUtMTkuNWw0NS41LDE5LjVWODMgICBjMCwwLjQtMC4xLDM0LjktNDUuNiw1OS4yYy03LjUtMy42LTM2LjItMTkuNC00NC4zLTUzSDQ1YzkuNCw0NC43LDUwLjIsNjEuNCw1Miw2Mi4ybDEuOSwwLjhsMS44LTAuOSAgIEMxNTMuMSwxMjQuNCwxNTMuMiw4NC42LDE1My4xLDgyLjl6Ii8+JiN4YTsJPHBhdGggZmlsbD0iIzMxMkQyQSIgZD0iTTQ5LjcsODMuMXYtNC44aDYuMXY3LjFoNi40di03LjF2LTF2LTQuN0gzNy4xYy0xLjUtNi4zLTcuMi0xMS0xMy45LTExYy03LjksMC0xNC40LDYuNC0xNC40LDE0LjQgICBjMCw3LjksNi40LDE0LjQsMTQuNCwxNC40YzcuMSwwLDEzLTUuMiwxNC4yLTEyaDcuNHY0LjhINDkuN3ogTTIzLjIsODMuN2MtNC4zLDAtNy44LTMuNS03LjgtNy44YzAtNC4zLDMuNS03LjgsNy44LTcuOCAgIHM3LjgsMy41LDcuOCw3LjhDMzEsODAuMiwyNy41LDgzLjcsMjMuMiw4My43eiIvPiYjeGE7CTxwYXRoIGZpbGw9IiMzMTJEMkEiIGQ9Ik0xMTEuMyw3My4xYy0yLDAtMy43LDEuNy0zLjcsMy43YzAsMiwxLjcsMy43LDMuNywzLjdzMy43LTEuNywzLjctMy43QzExNSw3NC44LDExMy40LDczLjEsMTExLjMsNzMuMXoiLz4mI3hhOwk8cGF0aCBmaWxsPSIjMzEyRDJBIiBkPSJNNjguOSw5Mi4xSDEyN1Y2Mi4zSDY4LjlWOTIuMXogTTc1LjksNjkuM0gxMjB2MTUuOEg3NS45VjY5LjN6Ii8+JiN4YTs8L2c+JiN4YTs8L3N2Zz4=;rounded=1;dashed=1;labelBackgroundColor=none;strokeWidth=2;fontFamily=Courier New;fontSize=18;fontColor=#000000;align=left;labelPosition=right;" parent="1" vertex="1">
          <mxGeometry x="580" y="674" width="70" height="70" as="geometry" />
        </mxCell>
        <mxCell id="9CzY_LCpeozfdE7S5n3H-34" value="Compartment: (root) /adonatie_org / AndrewGregory" style="shape=image;verticalLabelPosition=middle;verticalAlign=middle;imageAspect=0;aspect=fixed;image=data:image/svg+xml,PHN2ZyB2ZXJzaW9uPSIxLjEiIGlkPSJDb21wYXJ0bWVudHMiIHhtbG5zPSJodHRwOi8vd3d3LnczLm9yZy8yMDAwL3N2ZyIgeG1sbnM6eGxpbms9Imh0dHA6Ly93d3cudzMub3JnLzE5OTkveGxpbmsiIHg9IjBweCIgeT0iMHB4IiB2aWV3Qm94PSIwIDAgMTYxLjkgMTYyIiBlbmFibGUtYmFja2dyb3VuZD0ibmV3IDAgMCAxNjEuOSAxNjIiIHhtbDpzcGFjZT0icHJlc2VydmUiPiYjeGE7PGc+JiN4YTsJPHBhdGggZmlsbD0iIzMxMkQyQSIgZD0iTTgxLjgsNDQuN0w3MS4zLDIyLjNIOS4xbDAsMTE3LjFoMTQ0VjQ0LjdIODEuOHogTTE0NCwxMzAuNGgtMTI2bDAtOTkuMWg0Ny41bDEwLjUsMjIuNEgxNDRWMTMwLjR6Ii8+JiN4YTsJPHBvbHlnb24gZmlsbD0ibm9uZSIgc3Ryb2tlPSIjMzEyRDJBIiBzdHJva2Utd2lkdGg9IjciIHN0cm9rZS1taXRlcmxpbWl0PSIxMCIgcG9pbnRzPSIxMTcuNyw4Ny4yIDEwNC43LDExMC44IDEzMC44LDExMC44ICAiLz4mI3hhOwkmI3hhOwkJPGVsbGlwc2UgdHJhbnNmb3JtPSJtYXRyaXgoMC45NzMyIC0wLjIyOTggMC4yMjk4IDAuOTczMiAtMjAuNTQ4NiAyMS41NDI1KSIgZmlsbD0ibm9uZSIgc3Ryb2tlPSIjMzEyRDJBIiBzdHJva2Utd2lkdGg9IjciIHN0cm9rZS1taXRlcmxpbWl0PSIxMCIgY3g9IjgyLjIiIGN5PSI5OSIgcng9IjEyIiByeT0iMTIiLz4mI3hhOwk8cG9seWdvbiBmaWxsPSJub25lIiBzdHJva2U9IiMzMTJEMkEiIHN0cm9rZS13aWR0aD0iNyIgc3Ryb2tlLW1pdGVybGltaXQ9IjEwIiBwb2ludHM9IjM5LjUsODcuNCAzMi43LDk5LjEgMzkuNSwxMTAuOCA1MywxMTAuOCAgICA1OS44LDk5LjEgNTMsODcuNCAgIi8+JiN4YTsJPHBvbHlnb24gZmlsbD0iIzMxMkQyQSIgcG9pbnRzPSI0MC4xLDY4LjggNDkuMSw2OC44IDQ5LjEsNTkuNSA1OC44LDU5LjUgNTguOCw1MC41IDQ5LjEsNTAuNSA0OS4xLDQxLjIgNDAuMSw0MS4yIDQwLjEsNTAuNSAgICAzMC4zLDUwLjUgMzAuMyw1OS41IDQwLjEsNTkuNSAgIi8+JiN4YTs8L2c+JiN4YTs8L3N2Zz4=;rounded=0;shadow=1;glass=0;dashed=1;labelBackgroundColor=none;sketch=0;strokeWidth=6;fontFamily=Courier New;fontSize=18;fontColor=#000000;opacity=30;align=left;labelPosition=right;" parent="1" vertex="1">
          <mxGeometry x="20" y="10" width="60" height="60" as="geometry" />
        </mxCell>
        <mxCell id="9CzY_LCpeozfdE7S5n3H-35" value="" style="shape=image;html=1;verticalAlign=top;verticalLabelPosition=bottom;labelBackgroundColor=#ffffff;imageAspect=0;aspect=fixed;image=https://cdn2.iconfinder.com/data/icons/stilllife/48x48/filesystems/gnome-fs-nfs.png;rounded=0;shadow=1;glass=0;dashed=1;sketch=0;strokeColor=#000000;strokeWidth=3;fontFamily=Courier New;fontSize=16;fontColor=#000000;opacity=40;align=left;" parent="1" vertex="1">
          <mxGeometry x="440" y="401" width="48" height="48" as="geometry" />
        </mxCell>
      </root>
    </mxGraphModel>
  </diagram>
</mxfile>
